<svg width="456" height="377" viewBox="0 0 456 377" fill="none" xmlns="http://www.w3.org/2000/svg">
<g clip-path="url(#clip0)">
<path d="M184.687 1.33397L183.438 1.96579L217.196 68.8436L218.445 68.2118L184.687 1.33397Z" fill="#014596"/>
<path d="M218.208 55.3245C218.208 55.3245 217.043 49.0217 212.846 50.4223C208.65 51.8229 211.914 59.0594 211.914 59.0594L218.208 55.3245Z" fill="#F4AE87"/>
<path d="M130.086 140.062C134.516 130.024 135.448 128.157 134.749 122.554C134.282 119.053 132.184 116.952 128.687 116.018C127.055 115.551 125.19 114.617 122.16 116.251C110.736 122.321 117.963 133.292 117.031 137.261C116.332 140.062 115.632 142.863 113.767 144.964C108.871 150.1 104.675 156.402 104.209 163.406C103.743 169.942 108.405 176.711 115.166 178.812C121.227 180.446 136.381 178.112 136.614 163.872C136.614 150.333 127.988 144.731 130.086 140.062Z" fill="#4B4B4B"/>
<path d="M452.27 116.485L290.711 85.9046C286.748 85.2043 283.718 89.1728 285.35 92.6743L294.908 113.45C296.073 115.785 294.908 118.819 292.577 119.986L2.79737 253.512C0.466077 254.679 -0.699567 257.48 0.466077 260.048L53.1532 374.199C54.3188 376.533 57.1164 377.7 59.6808 376.533L349.227 242.774C351.558 241.607 354.589 242.774 355.754 245.108L365.313 265.884C366.945 269.386 371.84 269.619 373.938 266.351L455.534 123.488C457.165 120.687 455.534 116.952 452.27 116.485Z" fill="#014596"/>
<path d="M60.6959 157.633L51.6855 162.542L56.8105 171.974L65.8208 167.065L60.6959 157.633Z" fill="#63281D"/>
<path d="M145.472 251.878L147.57 256.78L164.356 249.777C164.356 249.777 164.122 245.809 157.828 247.209C151.534 248.61 148.736 249.31 148.736 249.31L145.472 251.878Z" fill="#9B9B9B"/>
<path d="M32.8709 238.572C32.8709 238.572 34.5028 244.641 30.0733 246.042C25.6439 247.443 24.2451 239.739 24.2451 239.739L32.8709 238.572Z" fill="#F4AE87"/>
<path d="M133.815 263.783L135.447 268.919L152.699 263.316C152.699 263.316 152.699 259.348 146.404 260.282C140.11 261.215 137.079 261.682 137.079 261.682L133.815 263.783Z" fill="#9B9B9B"/>
<path d="M131.951 213.361L95.5824 197.487L78.3309 207.058L65.0426 196.787C63.8769 201.222 67.1407 212.194 67.1407 213.128C67.1407 213.128 66.2082 221.064 72.5027 228.067C79.7297 236.004 108.405 241.84 108.405 241.84C106.539 242.074 117.73 231.336 117.73 231.336C117.73 231.336 90.2205 222.465 90.4536 219.197C90.6867 217.329 93.018 216.629 93.7174 216.863L122.859 223.399C122.859 223.399 125.423 231.802 130.086 237.172C137.546 245.575 145.938 252.812 145.938 252.812L154.098 248.376L131.951 213.361Z" fill="#FF5F57"/>
<path d="M47.0919 173.677C54.0858 179.746 62.0122 179.046 54.0858 190.017C47.325 199.121 37.0674 206.825 35.9017 209.393C34.7361 212.194 31.9385 236.004 31.9385 236.004L23.5459 236.471L24.2453 208.926C24.4784 206.825 24.9447 205.891 25.4109 204.724L37.7668 186.749L47.0919 173.677Z" fill="#4B4B4B"/>
<path d="M34.1482 235.956L22.7397 236.549L22.9812 241.211L34.3896 240.619L34.1482 235.956Z" fill="#014596"/>
<path d="M82.9937 176.478C74.1349 174.144 62.2453 175.544 69.006 163.872C75.3005 152.901 80.8956 147.765 80.6625 144.731C80.4293 141.696 74.368 123.955 74.368 123.955L81.595 119.753L87.4232 133.526C88.1226 135.393 91.3864 142.163 91.3864 143.33C91.3864 143.33 88.3557 156.636 87.1901 161.071C85.7913 165.273 82.9937 176.478 82.9937 176.478Z" fill="#4B4B4B"/>
<path d="M69.0058 160.604L50.1224 170.876C45.693 173.21 44.2942 179.046 47.0917 183.248L67.1408 213.128L95.5825 197.721L81.1285 164.806C78.7973 160.137 73.4353 158.27 69.0058 160.604Z" fill="#4B4B4B"/>
<path d="M58.8605 162.981L57.6318 163.65L82.9224 210.197L84.1511 209.527L58.8605 162.981Z" fill="#FF5F57"/>
<path d="M61.7792 166.907L58.7485 168.541L70.6381 195.153L76.0001 197.954C76.4663 198.188 77.1657 197.954 77.1657 197.254L77.632 191.185L61.7792 166.907Z" fill="white"/>
<path d="M63.8775 167.374C64.81 169.008 64.1106 171.109 62.4787 172.043C60.8468 172.976 58.7486 172.276 57.8161 170.642C56.8836 169.008 57.583 166.907 59.2149 165.973C60.8468 165.04 62.9449 165.74 63.8775 167.374Z" fill="white"/>
<path d="M59.2146 165.973C59.2146 165.973 58.5152 175.311 57.3496 176.245C56.184 177.178 50.5889 170.642 50.5889 170.642L59.2146 165.973Z" fill="#014596"/>
<path d="M59.2144 165.973C59.2144 165.973 67.607 170.409 69.0058 169.942C70.4045 169.475 68.0733 161.305 68.0733 161.305L59.2144 165.973Z" fill="#014596"/>
<path d="M59.9141 146.832C62.4785 151.5 62.2454 160.137 57.5828 162.472C52.9202 165.04 45.6932 160.371 43.1288 155.936C40.5644 151.267 42.4294 145.664 46.8589 143.097C51.5214 140.529 57.3497 142.396 59.9141 146.832Z" fill="#F4AE87"/>
<path d="M52.454 163.172L49.8895 158.737C49.8895 158.737 44.7607 157.336 44.5276 154.302C44.2944 151.267 48.2576 152.201 48.2576 152.201C48.2576 152.201 64.3435 143.797 64.3435 140.529C64.3435 137.961 45.227 138.428 43.1288 139.828C41.0306 141.229 33.8036 153.368 34.503 155.702C35.2024 158.037 45.227 162.238 45.227 162.238L52.454 163.172Z" fill="#F3BA18"/>
<path d="M80.6624 119.986C80.6624 119.986 79.4968 113.684 75.3005 115.084C71.1042 116.485 74.368 123.721 74.368 123.721L80.6624 119.986Z" fill="#F4AE87"/>
<path d="M81.3299 118.363L71.1895 123.628L73.3356 127.772L83.4761 122.507L81.3299 118.363Z" fill="#014596"/>
<path d="M172.982 226.667C178.344 236.004 180.442 240.906 180.442 240.906L187.436 238.806C187.436 238.806 178.344 204.957 174.147 203.09C173.215 202.623 171.583 202.623 169.018 202.856C167.62 207.058 169.485 220.598 172.982 226.667Z" fill="#F4AE87"/>
<path d="M200.724 196.554C199.791 193.752 197.926 191.418 195.595 189.55L164.123 171.342L150.834 174.611L140.577 162.238C138.712 166.207 139.178 177.178 138.945 178.112C138.945 178.112 158.528 193.752 159.46 188.85C159.693 186.983 162.491 186.983 163.19 187.45L190.933 198.654C190.933 198.654 192.098 209.393 195.362 215.462C200.724 225.033 204.221 232.269 204.221 232.269L212.38 231.569L200.724 196.554Z" fill="#F4AE87"/>
<path d="M204.221 231.336L205.153 236.471L222.405 233.437C222.405 233.437 222.871 229.702 216.81 229.702C210.515 229.702 204.221 231.336 204.221 231.336Z" fill="#9B9B9B"/>
<path d="M85.092 118.352C85.092 118.352 83.9263 112.283 79.9631 113.45C75.7668 114.851 78.7975 121.62 78.7975 121.62L85.092 118.352Z" fill="#F4AE87"/>
<path d="M179.742 239.506L181.141 245.342L198.392 242.307C198.392 242.307 198.859 238.572 192.797 238.572C186.503 238.572 179.742 239.506 179.742 239.506Z" fill="#9B9B9B"/>
<path d="M128.921 164.106C131.718 155.702 138.246 151.5 126.356 146.131C116.332 141.463 104.209 140.062 101.878 138.428C99.5463 136.794 86.0249 118.119 86.0249 118.119L78.7979 121.62L92.3193 144.264C93.485 145.898 94.1844 146.598 95.35 147.298L114.233 156.402L128.921 164.106Z" fill="#F3BA18"/>
<path d="M86.7478 115.477L76.9292 120.347L78.8954 124.322L88.714 119.451L86.7478 115.477Z" fill="#E0902F"/>
<path d="M143.374 88.0056C143.374 88.0056 138.945 83.5703 142.442 81.0025C145.939 78.4347 149.669 84.7375 149.669 84.7375L143.374 88.0056Z" fill="#F4AE87"/>
<path d="M155.73 150.1C147.104 147.765 140.11 150.567 142.442 137.728C144.307 126.989 150.368 116.018 150.135 113.217C150.135 110.649 142.675 88.7059 142.675 88.7059L149.669 84.7375L160.626 108.781C161.325 110.649 161.325 111.816 161.325 112.983L158.061 133.759L155.73 150.1Z" fill="#F3BA18"/>
<path d="M149.814 82.5898L140.197 87.8463L142.319 91.7391L151.936 86.4827L149.814 82.5898Z" fill="#E0902F"/>
<path d="M167.387 170.876L138.945 178.346C138.945 178.346 140.11 187.916 142.675 193.752C147.104 203.557 155.73 199.822 159.693 203.09C164.822 207.292 160.859 217.796 164.356 216.629C169.951 214.995 192.564 199.588 201.423 194.453C203.988 193.052 199.092 181.847 193.963 180.913C184.871 179.279 182.074 180.213 173.914 175.311C169.718 172.743 167.387 170.876 167.387 170.876Z" fill="#34BE8E"/>
<path d="M142.674 134.693L124.49 144.264C120.061 146.598 114.932 152.201 117.497 156.169L137.546 171.342L139.877 185.115L167.386 170.642L157.362 160.137L155.263 137.728C153.398 133.292 146.871 132.359 142.674 134.693Z" fill="#F3BA18"/>
<path d="M137.406 142.428L136.159 143.063L158.169 186.331L159.416 185.695L137.406 142.428Z" fill="#014596"/>
<path d="M126.122 144.03C127.987 148.932 133.582 151.267 138.245 149.166C143.141 147.298 145.472 141.696 143.374 137.027C141.509 132.125 135.914 129.791 131.251 131.892C126.589 133.759 124.257 139.128 126.122 144.03Z" fill="#F9BB9B"/>
<path d="M125.19 131.191H135.215L139.878 140.295L131.252 144.964L125.19 131.191Z" fill="#F9BB9B"/>
<path d="M134.515 120.92C136.846 125.355 138.478 133.059 134.049 135.393C129.619 137.728 120.527 133.759 118.196 129.324C115.865 124.889 117.497 119.286 122.159 116.952C126.822 114.617 132.184 116.251 134.515 120.92Z" fill="#F9BB9B"/>
<path d="M134.516 120.92C136.847 125.355 136.381 133.292 131.951 136.094C127.522 138.895 120.528 134.226 118.197 129.324C115.865 124.889 117.497 119.286 122.16 116.952C126.822 114.617 132.184 116.251 134.516 120.92Z" fill="#E8A181"/>
<path d="M127.288 136.327L124.957 131.892C124.957 131.892 120.061 130.258 120.061 127.456C120.061 124.655 123.791 125.589 123.791 125.589C123.791 125.589 139.411 117.652 139.644 114.617C139.644 112.05 121.227 112.283 119.362 113.684C117.264 115.084 110.27 126.523 110.736 128.857C111.436 130.958 120.994 135.393 120.994 135.393L127.288 136.327Z" fill="#4B4B4B"/>
<path d="M117.73 231.336L140.11 261.215L134.515 265.884C134.515 265.884 123.791 260.048 116.331 253.512C108.871 246.976 107.706 241.14 107.706 241.14L107.239 232.503L117.73 231.336Z" fill="#FF5F57"/>
<path d="M197.045 91.8436L188.035 96.7522L193.16 106.185L202.17 101.276L197.045 91.8436Z" fill="#F4AE87"/>
<path d="M281.853 186.049L283.951 190.951L300.736 183.948C300.736 183.948 300.503 179.98 294.208 181.38C287.914 182.781 285.116 183.481 285.116 183.481L281.853 186.049Z" fill="#9B9B9B"/>
<path d="M195.129 161.772C195.129 161.772 200.025 165.507 196.994 168.541C193.963 171.576 189.301 165.74 189.301 165.74L195.129 161.772Z" fill="#F4AE87"/>
<path d="M270.196 198.188L271.828 203.323L289.079 197.721C289.079 197.721 289.079 193.752 282.785 194.686C276.49 195.62 273.46 196.087 273.46 196.087L270.196 198.188Z" fill="#9B9B9B"/>
<path d="M268.331 147.532L231.963 131.658L214.711 141.229L201.423 130.958C200.257 135.393 203.521 146.365 203.521 147.298C203.521 147.298 203.754 156.869 209.816 163.872C214.012 168.775 244.785 176.011 244.785 176.011C242.92 176.245 254.11 165.507 254.11 165.507C254.11 165.507 226.601 156.636 226.834 153.368C227.067 151.5 229.398 150.8 230.098 151.033L259.239 157.57C259.239 157.57 261.803 165.973 266.466 171.342C273.926 179.746 282.319 186.983 282.319 186.983L290.478 182.547L268.331 147.532Z" fill="#448FEA"/>
<path d="M185.104 106.447C192.797 102.245 197.926 102.012 196.061 114.851C194.429 125.589 185.804 133.993 186.037 136.794C186.27 139.595 194.429 161.071 194.429 161.071L187.669 165.273L176.012 141.929C175.313 140.062 175.08 139.128 175.08 137.728C175.08 137.494 180.442 108.781 185.104 106.447Z" fill="#014596"/>
<path d="M195.309 159.331L185.896 164.947L188.163 168.757L197.577 163.141L195.309 159.331Z" fill="#251D6D"/>
<path d="M219.374 110.882C210.515 108.548 198.626 109.949 205.386 98.2768C211.681 87.3053 217.276 82.1697 217.043 79.135C216.81 76.1003 210.748 58.3591 210.748 58.3591L217.975 54.1573L223.804 67.93C224.503 69.7975 227.767 76.5672 227.767 77.7344C227.767 77.7344 224.736 91.0403 223.57 95.4756C222.172 99.444 219.374 110.882 219.374 110.882Z" fill="#014596"/>
<path d="M205.386 95.0087L186.503 105.28C182.073 107.614 180.675 113.45 183.472 117.652L203.521 147.532L231.963 132.125L217.509 99.2105C215.411 94.3084 209.816 92.4409 205.386 95.0087Z" fill="#014596"/>
<path d="M195.208 97.1969L193.979 97.8662L219.27 144.413L220.499 143.743L195.208 97.1969Z" fill="#4B4B4B"/>
<path d="M198.16 101.078L195.362 102.712L207.252 129.324L212.614 132.125C213.08 132.359 213.779 132.125 213.779 131.425L214.246 125.355L198.16 101.078Z" fill="white"/>
<path d="M200.49 101.545C201.423 103.179 200.723 105.28 199.091 106.214C197.46 107.147 195.361 106.447 194.429 104.813C193.496 103.179 194.196 101.078 195.828 100.144C197.46 99.2105 199.558 99.9108 200.49 101.545Z" fill="white"/>
<path d="M195.595 100.144C195.595 100.144 194.896 109.482 193.73 110.415C192.564 111.349 186.969 104.813 186.969 104.813L195.595 100.144Z" fill="#251D6D"/>
<path d="M195.595 100.144C195.595 100.144 203.987 104.58 205.386 104.113C206.785 103.646 204.454 95.4755 204.454 95.4755L195.595 100.144Z" fill="#251D6D"/>
<path d="M196.294 81.2359C198.859 85.9046 198.626 94.5418 193.963 96.8761C189.301 99.4439 182.074 94.7752 179.509 90.3399C176.945 85.6712 178.81 80.0687 183.239 77.5009C188.135 74.9331 193.73 76.5672 196.294 81.2359Z" fill="#F9BB9B"/>
<path d="M189.068 97.343L186.503 92.9077C186.503 92.9077 181.374 91.5071 181.141 88.4724C180.908 85.4378 184.871 86.3715 184.871 86.3715C184.871 86.3715 200.957 77.9678 200.957 74.6997C200.957 72.1319 181.841 72.5988 179.743 73.9994C177.644 75.4 170.417 87.5387 171.117 89.8731C171.816 92.2074 181.841 96.4093 181.841 96.4093L189.068 97.343Z" fill="#4B4B4B"/>
<path d="M254.11 165.507L276.49 195.386L270.895 200.055C270.895 200.055 260.171 194.219 252.711 187.683C245.251 181.147 244.086 175.311 244.086 175.311L243.386 166.674L254.11 165.507Z" fill="#448FEA"/>
<path d="M218.697 53.3299L209.284 58.9462L211.551 62.7566L220.964 57.1402L218.697 53.3299Z" fill="#251D6D"/>
<path d="M230.797 6.76966C231.263 6.30279 230.797 5.60248 230.331 5.60248L186.736 5.83591C186.036 5.83591 185.57 6.53622 185.803 7.23653L199.791 35.2489L201.656 38.9839C201.889 39.6842 202.822 39.6842 203.288 38.9839L230.797 6.76966Z" fill="#FF5F57"/>
<path d="M185.57 1.63406C185.57 2.5678 184.871 3.26811 183.939 3.26811C183.006 3.26811 182.307 2.5678 182.307 1.63406C182.307 0.70031 183.006 0 183.939 0C184.871 0 185.57 0.70031 185.57 1.63406Z" fill="#014596"/>
</g>
<defs>
<clipPath id="clip0">
<rect width="456" height="377" fill="white"/>
</clipPath>
</defs>
</svg>
