<svg width="378" height="377" viewBox="0 0 378 377" fill="none" xmlns="http://www.w3.org/2000/svg">
<g clip-path="url(#clip0)">
<path d="M56.3004 226.7C56.3004 226.7 39.3005 223.5 37.2005 223.7C35.2005 223.9 24.5005 229.1 21.4005 229.8C18.3005 230.5 18.6005 232.3 21.4005 232.5C24.2005 232.7 59.7005 237 59.7005 237L56.3004 226.7Z" fill="#FDB082"/>
<path d="M195.5 151.1C200 155.2 198.9 162.6 193.4 165.2C190 166.8 185.4 168.7 179.1 170.7C163.5 175.7 108.2 190.7 98.9999 188.8C89.8999 186.9 89.7999 175 101.5 167.6C110.6 161.8 150.7 149.4 168.4 144.1C174.6 142.2 181.3 142.7 187.2 145.6C190 147 193.1 148.9 195.5 151.1Z" fill="#2A4E96"/>
<path d="M113.3 180.5C113.3 180.5 104.9 192 96.9 188.3C88.9 184.6 58.5 156.9 58.5 156.9L66.2 142.7L106 164.8L113.3 180.5Z" fill="#2A4E96"/>
<path d="M67.3 142.6C67.3 142.6 59.3 138.4 59 138.6C58.7 138.8 51.5 153.1 51.5 153.4C51.5 153.7 58.7 157.5 59 157.4C59.4 157.3 67.3 142.6 67.3 142.6Z" fill="#1E3D70"/>
<path d="M222.2 165.4C216.1 164.9 211.5 170.7 213.3 176.5C214.4 180 216.2 184.8 218.9 190.7C225.8 205.6 252.4 256.4 259.9 261.8C267.5 267.2 276.3 259.3 273.8 245.5C271.9 234.9 253.8 197 245.7 180.4C242.9 174.6 237.9 170 231.9 167.7C228.9 166.6 225.5 165.6 222.2 165.4Z" fill="#2A4E96"/>
<path d="M256.499 245.6C256.499 245.6 253.799 259.6 261.899 262.9C269.999 266.2 310.999 269.8 310.999 269.8L316.199 254.5L272.999 240.4L256.499 245.6Z" fill="#2A4E96"/>
<path d="M315.5 253.7C315.5 253.7 324.1 256.7 324.1 257C324.1 257.3 318.5 272.4 318.3 272.6C318.1 272.8 310.4 270.2 310.2 269.8C310.1 269.5 315.5 253.7 315.5 253.7Z" fill="#1E3D70"/>
<path d="M176.5 159C182.5 159.9 185.7 166.7 182.6 171.9C180.7 175.1 177.9 179.3 173.8 184.4C163.7 197.3 126 240.5 117.3 244C108.7 247.5 102 237.7 107.6 224.9C112 215 138.4 182.4 150.1 168.2C154.2 163.2 160.1 159.9 166.5 159C169.7 158.7 173.3 158.5 176.5 159Z" fill="#2A4E96"/>
<path d="M124.5 229.2C124.5 229.2 123.9 243.4 115.2 244.7C106.5 246 65.7998 240 65.7998 240L64.2998 224L109.7 220.3L124.5 229.2Z" fill="#2A4E96"/>
<path d="M65.3001 223.2C65.3001 223.2 56.3001 224.1 56.2001 224.5C56.1001 224.8 58.0001 240.8 58.2001 241C58.3001 241.2 66.4001 240.5 66.7001 240.2C66.8001 239.9 65.3001 223.2 65.3001 223.2Z" fill="#1E3D70"/>
<path d="M210.2 168.2C209.9 174.3 215.9 178.7 221.6 176.7C225.1 175.5 229.8 173.5 235.6 170.6C250.2 163.2 300 134.8 305.2 127C310.4 119.2 302.1 110.7 288.4 113.7C277.8 116 240.6 135.5 224.4 144.1C218.7 147.2 214.2 152.2 212.2 158.4C211.2 161.5 210.3 164.9 210.2 168.2Z" fill="#2A4E96"/>
<path d="M297.301 133.9C297.301 133.9 307.201 129.4 307.001 120.6C306.801 111.8 297.201 61.8 297.201 61.8L281.101 63L281.401 117.4L297.301 133.9Z" fill="#2A4E96"/>
<path d="M280.6 64.1C280.6 64.1 280 55 280.3 54.9C280.6 54.8 296.7 53.9 296.9 54C297.1 54.1 297.8 62.2 297.6 62.5C297.3 62.7 280.6 64.1 280.6 64.1Z" fill="#1E3D70"/>
<path d="M337.7 191.1C339.7 189.9 355.8 184.5 355.8 184.5C356.8 184.2 359.1 183.8 358.3 185.6C357.5 187.4 354 188.2 354 188.2C354 188.2 349 189.5 351 190C353 190.5 365.6 187.3 368.9 185.9C372.2 184.5 371.5 186.8 369.7 188.3C367.9 189.7 358.3 192.6 358.3 192.6C358.3 192.6 360.5 192.5 365.6 191.1C368.9 190.2 370.9 189.2 371.6 190.1C372.3 191 369.1 193.4 369.1 193.4C369.1 193.4 371.2 192.4 371.3 193.7C371.4 194.9 369.3 196.1 366.5 197.2C363.7 198.3 358.7 198.8 359.4 199.2C360 199.5 363.2 199.1 364.6 198.9C366 198.6 367.8 198.1 367.7 199C367.5 199.9 363.2 202 358.3 202.5C353.4 203.1 340.6 202.4 339.5 202.4C338.4 202.4 334.6 203.8 334.6 203.8L330.2 196.7C330 196.7 335.7 192.3 337.7 191.1Z" fill="#FDB082"/>
<g opacity="0.31">
<path opacity="0.31" d="M127 20.9H34.2002V22.5H127V20.9Z" fill="#8BBBE5"/>
<path opacity="0.31" d="M127 28.4H34.2002V30H127V28.4Z" fill="#8BBBE5"/>
<path opacity="0.31" d="M127 75.4H34.2002V77H127V75.4Z" fill="#8BBBE5"/>
<path opacity="0.31" d="M36.6602 77.0447L36.6602 20.9447H34.1602L34.1602 77.0447H36.6602Z" fill="#8BBBE5"/>
<path opacity="0.31" d="M46.6797 77.0254L46.6797 20.9254H44.1797L44.1797 77.0254H46.6797Z" fill="#8BBBE5"/>
<path opacity="0.31" d="M76.5254 76.9798L76.5254 20.8798H74.0254L74.0254 76.9798H76.5254Z" fill="#8BBBE5"/>
<path opacity="0.31" d="M126.953 77.0518L126.953 20.9518H124.453L124.453 77.0518H126.953Z" fill="#8BBBE5"/>
<path opacity="0.31" d="M66.3004 26.6H54.2004C53.8004 26.6 53.4004 26.3 53.4004 25.8V25.4C53.4004 25 53.7004 24.6 54.2004 24.6H66.3004C66.7004 24.6 67.1004 24.9 67.1004 25.4V25.8C67.1004 26.3 66.8004 26.6 66.3004 26.6Z" fill="#8BBBE5"/>
<path opacity="0.31" d="M66.3002 35.8H51.0002C50.6002 35.8 50.2002 35.5 50.2002 35V34.6C50.2002 34.2 50.5002 33.8 51.0002 33.8H66.3002C66.7002 33.8 67.1002 34.1 67.1002 34.6V35C67.1002 35.5 66.8002 35.8 66.3002 35.8Z" fill="#8BBBE5"/>
<path opacity="0.31" d="M111.3 35.8H80.3C79.9 35.8 79.5 35.5 79.5 35V34.6C79.5 34.2 79.8 33.8 80.3 33.8H111.3C111.7 33.8 112.1 34.1 112.1 34.6V35C112 35.5 111.7 35.8 111.3 35.8Z" fill="#8BBBE5"/>
<path opacity="0.31" d="M105.4 40.4H80.3C79.9 40.4 79.5 40.1 79.5 39.6V39.2C79.5 38.8 79.8 38.4 80.3 38.4H105.4C105.8 38.4 106.2 38.7 106.2 39.2V39.6C106.2 40.1 105.8 40.4 105.4 40.4Z" fill="#8BBBE5"/>
<path opacity="0.31" d="M110.7 45H80.3C79.9 45 79.5 44.7 79.5 44.2V43.8C79.5 43.4 79.8 43 80.3 43H110.7C111.1 43 111.5 43.3 111.5 43.8V44.2C111.4 44.6 111.1 45 110.7 45Z" fill="#8BBBE5"/>
<path opacity="0.31" d="M97.5 49.6H80.3C79.9 49.6 79.5 49.3 79.5 48.8V48.4C79.5 48 79.8 47.6 80.3 47.6H97.5C97.9 47.6 98.3 47.9 98.3 48.4V48.8C98.2 49.2 97.9 49.6 97.5 49.6Z" fill="#8BBBE5"/>
<path opacity="0.31" d="M113.1 54.1H80.3C79.9 54.1 79.5 53.8 79.5 53.3V52.9C79.5 52.5 79.8 52.1 80.3 52.1H113.1C113.5 52.1 113.9 52.4 113.9 52.9V53.3C113.8 53.8 113.5 54.1 113.1 54.1Z" fill="#8BBBE5"/>
<path opacity="0.31" d="M113.1 26.6H103.4C103 26.6 102.6 26.3 102.6 25.8V25.4C102.6 25 102.9 24.6 103.4 24.6H113.1C113.5 24.6 113.9 24.9 113.9 25.4V25.8C113.8 26.3 113.5 26.6 113.1 26.6Z" fill="#8BBBE5"/>
<path opacity="0.31" d="M97.5002 26.6H82.0002C81.6002 26.6 81.2002 26.3 81.2002 25.8V25.4C81.2002 25 81.5002 24.6 82.0002 24.6H97.5002C97.9002 24.6 98.3002 24.9 98.3002 25.4V25.8C98.2002 26.3 97.9002 26.6 97.5002 26.6Z" fill="#8BBBE5"/>
</g>
<path d="M57.3003 31.3C57.3003 31.3 64.3003 28.9 68.4003 32.3C72.4003 35.7 68.0003 47 55.7003 45.8C43.4003 44.5 51.2003 33.7 57.0003 34C62.8003 34.3 63.8003 36 63.8003 36C63.8003 36 58.7003 34.3 55.9003 34.8C53.0003 35.3 50.0003 39.1 51.1003 41.8C52.2003 44.5 60.0003 45.3 65.2003 41.9C70.3003 38.3 70.9003 28.8 57.3003 31.3Z" fill="#FC4629"/>
<path d="M89.7001 37.8C89.7001 37.8 88.7001 35.4 88.0001 33.7C87.3001 31.8 86.8001 30 85.4001 31.1C84.1001 32.2 86.6001 36.4 86.6001 36.4L89.7001 37.8Z" fill="#ED9264"/>
<path d="M71.9901 31.0756L71.8203 33.1687L100.525 35.4969L100.695 33.4038L71.9901 31.0756Z" fill="#F44D37"/>
<path d="M100.4 33.6674L100.279 35.1624L101.974 35.2998L102.095 33.8047L100.4 33.6674Z" fill="#F44D37"/>
<path d="M99.7 35.4L99.6 36.9L90.5 36.2C90.5 36.2 91.2 35.6 91.9 35.8C92.6 36 92.7 36.1 92.7 36.1L98.3 36.6C98.3 36.6 99.5 36.4 98.7 35.3C97.7 34 99.7 35.4 99.7 35.4Z" fill="#F44D37"/>
<path d="M72.0002 31.1L67.2002 31.7L71.8002 33.1L73.4002 32.2L72.0002 31.1Z" fill="#F44D37"/>
<path d="M76.7007 32.9C76.7007 32.9 75.8007 33.9 76.0007 35.5C76.2007 37.1 76.5007 37.3 76.5007 37.3C76.5007 37.3 77.1007 38.9 77.0007 39.3C76.9007 39.7 77.2007 39.9 77.2007 39.9C77.2007 39.9 77.3007 41.8 78.7007 43.4C80.0007 45 80.6007 46 82.0007 45.7C83.4007 45.4 81.6007 43.2 80.6007 41.4C79.6007 39.5 78.3007 32.3 76.7007 32.9Z" fill="#ED9264"/>
<path d="M73.0001 29.1C73.0001 29.1 76.2001 28.6 77.5001 28.7C78.8001 28.7 83.5001 30.6 84.3001 31C85.1001 31.4 101.9 53.2 102.3 55.3C102.7 57.5 104.3 65.2 104.3 65.2L95.2001 66.6C95.2001 66.6 93.9001 58 93.7001 57.1C93.5001 56.2 87.8001 50.1 85.9001 47.6C84.0001 45.1 81.6001 41.2 80.7001 41.4C80.6001 41.4 80.4001 41.5 80.3001 41.6C80.0001 40.7 80.0001 40.9 79.8001 40C80.8001 39.6 82.1001 39.1 82.1001 39.1C82.1001 39.1 80.6001 38.8 79.5001 38.9C79.5001 38.8 79.5001 38.7 79.4001 38.7C79.4001 38.5 79.4001 38.3 79.3001 38.2C80.3001 36.3 79.7001 33.2 78.0001 32.2C79.2001 32.1 80.9001 32.9 80.9001 32.9C80.9001 32.9 77.8001 31.1 77.4001 31.1C77.1001 31.1 73.5001 31.5 73.5001 31.5C73.5001 31.5 70.3001 32 70.2001 31.4C70.0001 30.2 71.1001 29.3 73.0001 29.1Z" fill="#FDB082"/>
<path d="M205.3 163.3C206.9 169.2 202.2 174.9 196.1 174.2C192.4 173.8 187.4 173 181.1 171.4C165.2 167.5 110.2 151.2 103.4 144.8C96.6001 138.4 102.7 128.2 116.7 128.1C127.5 128 168.2 138.4 186 143.1C192.3 144.8 197.7 148.7 201.2 154.2C202.8 157 204.4 160.1 205.3 163.3Z" fill="#284B90"/>
<path d="M106.7 149.8C106.7 149.8 102.5 147.5 100.7 138.9C98.9004 130.3 91.4004 67.1 91.4004 67.1L107.3 64.7L124.3 130.1L106.7 149.8Z" fill="#284B90"/>
<path d="M108.1 65.6C108.1 65.6 106.6 56.6 106.3 56.6C106 56.5 90.1003 59.3 89.9003 59.5C89.7003 59.7 90.9003 67.7 91.2003 67.9C91.6003 68.1 108.1 65.6 108.1 65.6Z" fill="#1E3D70"/>
<path d="M78.1004 32.2C78.1004 32.2 76.4004 32.7 76.4004 33.5C76.4004 34.3 76.4004 34.9 77.7004 35.4C76.7004 36.5 76.4004 39.1 79.5004 39C82.6004 38.9 82.5004 37.2 82.5004 37.2C82.5004 37.2 81.9004 35.3 81.5004 34.8C81.3004 34.2 78.1004 32.2 78.1004 32.2Z" fill="#FDB082"/>
<path d="M81.7006 42C81.7006 42 78.3006 42.9 78.0006 41.1C77.6006 39.3 78.8006 39 80.3006 38.7C81.8006 38.4 82.8006 38.6 82.8006 38.6L83.3006 40.3L81.7006 42Z" fill="#FDB082"/>
<path d="M218.3 149.4C212.2 150 208.6 156.5 211.5 161.9C213.2 165.2 215.8 169.5 219.5 174.9C228.9 188.3 263.9 233.7 272.3 237.8C280.7 241.8 288 232.4 283.1 219.4C279.3 209.3 254.9 175.1 244.1 160.2C240.3 154.9 234.6 151.3 228.2 150.1C225.1 149.5 221.6 149.1 218.3 149.4Z" fill="#284B90"/>
<path d="M263.399 228.7C263.399 228.7 270.399 241.1 278.799 238.3C287.099 235.5 332.999 208 332.999 208L326.999 193L272.399 214L263.399 228.7Z" fill="#284B90"/>
<path d="M325.8 192.8C325.8 192.8 334.3 189.5 334.5 189.7C334.7 189.9 340.3 205 340.3 205.3C340.3 205.6 332.7 208.6 332.4 208.5C332.1 208.4 325.8 192.8 325.8 192.8Z" fill="#1E3D70"/>
<path d="M100 150.8C100 150.8 95.3001 156.3 94.8001 159.7C94.2001 163.1 100.5 155.1 100.5 155.1L100 150.8Z" fill="#ED9264"/>
<path d="M165.9 148.2C165.9 148.2 161.1 149.5 151.1 163.4C141.1 177.3 110.9 214.4 110.9 214.4L106.2 204.1L109.6 220.5L125 229.9L154 199.6L165.9 148.2Z" fill="#284B90"/>
<path d="M125.1 229.9C125.1 229.9 118.4 234.4 110.8 227.9C103.1 221.4 88.2002 176.4 88.2002 176.4L100.5 172.3L121.8 212.6L125.1 229.9Z" fill="#284B90"/>
<path d="M154 199.6C154 199.6 171.2 183.2 178.2 169.8C185.3 156.5 176.2 146.3 165.8 148.2C155.2 164.2 148.9 181.5 148.9 181.5L154 199.6Z" fill="#284B90"/>
<path d="M118 205.7C118 205.7 120.1 209.2 120.6 212.2C121.1 215.1 120.5 221.9 120.5 221.9C120.5 221.9 122.2 216.4 122 211.6C121.8 206.8 119.3 204.2 119.3 204.2L118 205.7Z" fill="#1E3D70"/>
<path d="M103.6 175.5C103.6 175.5 100.1 167.7 99.8001 167.7C99.5001 167.7 85.7001 174.1 85.6001 174.3C85.5001 174.5 88.5001 181.5 88.8001 181.7C89.1001 181.9 103.6 175.5 103.6 175.5Z" fill="#1E3D70"/>
<path d="M141.7 181.1L131.8 130.4C131.3 127.9 129.1 126 126.5 126H128.8C131.4 126 133.6 127.8 134.1 130.4L144 181.1C144.4 183.3 142.8 185.3 140.5 185.3H138.2C140.5 185.3 142.2 183.3 141.7 181.1Z" fill="#161312"/>
<path d="M102.5 181.1L92.7001 130.6C92.3001 128.3 94.0001 126.2 96.3001 126.2L126.6 126C129.2 126 131.4 127.8 131.9 130.4L141.8 181.1C142.2 183.3 140.6 185.3 138.3 185.3L108 185.5C105.3 185.6 103 183.7 102.5 181.1Z" fill="#332C29"/>
<path opacity="0.17" d="M136.6 154.6L107.7 126.2H97.2998L139.1 167.3L136.6 154.6Z" fill="white"/>
<path opacity="0.17" d="M140.4 174L93.3998 127.7C93.3998 127.7 92.8998 128.4 92.7998 128.9C94.0998 130.2 140.9 176.3 140.9 176.3L140.4 174Z" fill="white"/>
<path d="M89.5 172.4C89.5 172.4 90.1 165.8 90.5 164.5C91 163.2 101.7 151.3 102.8 151.3C103.9 151.3 113.7 154.3 113.6 155.1C113.5 155.8 111.1 156.2 107.9 155C104.7 153.8 103.2 154.2 102.9 154.3C102.6 154.5 101.9 155.2 101.9 155.2C101.9 155.2 103.6 155.1 105.1 155.6C106.6 156.1 115.3 158.2 115.2 159.1C115.1 160 113.3 160.6 111.4 159.9C113.6 161.1 113.5 162 113.2 162.5C112.8 163 108 161.5 106.9 161.2C105.8 160.9 102 160.7 102 160.7C102 160.7 106.1 161.8 107.9 162.3C109.7 162.8 111.7 163.2 111 164.3C110.3 165.3 106.1 163.8 104.7 163.5C103.3 163.2 101.4 162.4 100.9 163.3C100.4 164.2 100.3 166.4 97.6 168.7C94.8 171 89.5 172.4 89.5 172.4Z" fill="#FDB082"/>
<path d="M242.4 124.4C242.4 124.4 232.9 120.7 229.4 117.1C226 113.5 231.6 112.2 231.7 111.1C231.8 110 241.1 90.4 242.6 92.7C244.1 95 247.9 117.7 247.9 117.7L242.4 124.4Z" fill="#FDB082"/>
<path d="M282.4 142.4L286.5 153C286.5 153 250.2 148.8 233.3 146.3C216.4 143.7 212.1 146.3 212.1 146.3C203.4 152.4 204.4 166 218.9 170.2C233.4 174.5 257.1 173.7 257.1 173.7L287.6 174L291.7 156.4L282.4 142.4Z" fill="#284B90"/>
<path d="M287.7 173.8C287.7 173.8 310 171.2 300.5 156.3C290.3 140.2 247.9 115.5 247.9 115.5L242.1 124.8L274.3 159.2L287.7 173.8Z" fill="#284B90"/>
<path d="M265.8 150.5C265.8 150.5 276.3 162.2 283.6 167.3C275.1 164.5 263.3 150.2 263.3 150.2L265.8 150.5Z" fill="#1E3D70"/>
<path d="M231.399 88.7C235.199 87.9 239.699 87.3 239.699 88.1C239.699 89.4 242.699 116.8 241.899 117.5C241.599 117.8 239.599 118.3 237.299 118.9C240.199 118.3 242.799 117.6 243.199 117.2C243.999 116.5 240.999 89.1 240.999 87.8C240.999 87 235.399 87.8 231.399 88.7Z" fill="#161312"/>
<path d="M239.8 88.1C239.8 87.3 235.3 87.9 231.5 88.7C229.4 89.2 227.8 89.7 227.7 90C227.3 91 229.8 119.5 229.8 119.5C229.9 120.3 233.8 119.7 237.4 118.9C239.7 118.4 241.7 117.8 242 117.5C242.8 116.9 239.8 89.5 239.8 88.1Z" fill="#332C29"/>
<path d="M227.8 92.3L239.5 90.3L241.9 115.5L229.9 117.6L227.8 92.3Z" fill="#161312"/>
<path opacity="0.17" d="M228.6 106.6L239.2 87.8C239.2 87.8 239.7 87.9 239.7 88.1C239.7 88.3 240.7 98.8 240.7 98.8L229.6 118.4L228.6 106.6Z" fill="white"/>
<path d="M241.1 91.2C241.1 91.2 242.4 90.4 242.9 91.4C243.4 92.5 242.8 94.2 242.8 94.2C242.8 94.2 243.7 95.1 243.8 95.9C243.9 96.7 243.3 97.7 243.3 97.7C243.3 97.7 244 98.2 244 99C244 99.8 243.3 100.8 243.3 100.8C243.3 100.8 244 101.1 243.9 102.3C243.8 103.5 242.9 105.1 241.3 104.9C239.7 104.6 240.6 102.2 240.6 102.2C240.6 102.2 239.5 102.2 239.1 101C238.7 99.8 239.8 99.1 239.8 99.1C239.8 99.1 239 99 238.7 97.7C238.4 96.4 240 95.6 240 95.6C240 95.6 239 95.7 238.6 94.4C238.1 93.2 241.1 91.2 241.1 91.2Z" fill="#FDB082"/>
<path d="M245.7 131.7C245.7 131.7 238.7 126.7 238.8 126.4C238.9 126.1 247.9 113.9 248.1 113.8C248.3 113.7 254.6 118.1 254.7 118.4C254.8 118.8 245.7 131.7 245.7 131.7Z" fill="#1E3D70"/>
<path d="M227.9 111.4C227.9 111.4 231.4 105.8 232.4 108.1C233.4 110.4 229.5 114.5 229.5 114.5V117.1C229.5 117.2 226.3 113.6 227.9 111.4Z" fill="#FDB082"/>
<path d="M118.6 242.6L174.9 245.8L218 248.9L239.6 254.2C239.6 254.2 244.3 269.6 230.6 276.6C216.9 283.6 186.1 283.4 185 283.7C183.9 284.1 146.6 269.6 146.6 269.6L118.6 242.6Z" fill="#03264C"/>
<path d="M212.7 146.1L181.2 145.1C181.2 145.1 186.5 140.6 188.8 140C191 139.4 205.2 136.4 210 137.3C214.7 138.2 214.3 144.8 212.7 146.1Z" fill="#284B90"/>
<path d="M223.9 72.6C219.7 76.8 212.3 78.9 202.9 79.1C193.5 79.3 189 83 184.4 84.9C179.8 86.8 176.4 86.2 176.4 86.2C176.4 86.2 182.2 84.1 186.5 80.3C190.9 76.5 200 76.1 200 76.1C200 76.1 193.5 75.5 188.3 78.2C183.1 80.9 179.1 83.5 177.1 84.2C175.1 84.9 173.9 84.8 173.9 84.8C173.9 84.8 174.7 81.6 176.7 79.8C178.7 78.1 180.4 76.9 180.4 76.9C180.4 76.9 175.6 79.1 173.6 81.2C172.7 82.1 171.8 82.5 170.9 82.7C169.6 79 168 71 176.1 65.6C186.9 58.5 207.2 62.3 215.3 65.9C223.4 69.5 223.9 65.4 223.9 65.4C223.9 65.4 225.3 66.5 226.2 68.2C225.9 69.7 225.3 71.2 223.9 72.6Z" fill="#995D3F"/>
<path d="M226.499 72.8C224.799 76.4 222.899 75.6 222.899 75.6C222.899 75.6 224.699 80 224.299 94C223.899 108 219.799 112.9 211.699 121.7C203.599 130.5 194.099 126.5 194.099 126.5L171.699 84.8C171.699 84.8 171.299 84.1 170.899 82.9C171.699 82.7 172.699 82.2 173.599 81.4C175.699 79.3 180.399 77.1 180.399 77.1C180.399 77.1 178.699 78.2 176.699 80C174.699 81.7 173.899 85 173.899 85C173.899 85 175.099 85.1 177.099 84.4C179.099 83.7 183.099 81.1 188.299 78.4C193.499 75.7 199.999 76.3 199.999 76.3C199.999 76.3 190.899 76.8 186.499 80.5C182.099 84.3 176.399 86.4 176.399 86.4C176.399 86.4 179.799 87 184.399 85.1C188.999 83.2 193.499 79.5 202.899 79.3C212.299 79.1 219.599 77 223.899 72.8C225.299 71.4 225.899 69.9 226.099 68.5C226.799 69.6 227.199 71.2 226.499 72.8Z" fill="#8C4B2F"/>
<path d="M171.6 84.8C171.6 84.8 170 98.6 170.4 109.1C170.8 119.6 172.7 131 176 132.4C179.3 133.8 186.7 133 186.7 133L187.5 144.6L208.6 145.6L207.8 115.7C207.8 115.7 212.9 119.5 216 113C219.1 106.5 218.7 100.4 213.5 99.9C208.3 99.4 207.4 103.6 207.4 103.6C207.4 103.6 207.6 90.3 203 84.2C198.4 78.2 187.2 86.6 181 87.4C174.8 88.2 171.6 84.8 171.6 84.8Z" fill="#FDB082"/>
<path d="M186.7 133C186.7 133 188.9 132.4 191.7 131.7C194.5 130.9 197.7 128.8 197.7 128.8C197.7 128.8 195.3 132.7 192.1 134.6C189 136.6 186.9 137.2 186.9 137.2L186.7 133Z" fill="#E28054"/>
<path d="M216.1 109.4C216.1 109.4 217.6 103.1 213 102.9C208.4 102.7 209.3 109.1 209.8 109.4C210.3 109.8 211.6 110.9 211.3 111.4C211 111.9 209.5 111.8 209.8 112.7C210.1 113.7 213.9 114.5 213.2 111.3C212.6 108.1 210.9 108 210.9 108C210.9 108 210 104.7 212.9 104.4C215.8 104.1 216.1 109.4 216.1 109.4Z" fill="#E28054"/>
<path d="M177.7 105.3C177.7 105.3 176.6 109 174.6 111.5C172.6 114 172.1 116.1 175.5 116.6C178.9 117.1 179.9 115.5 180.1 111.1C180.3 106.7 180 104.1 178.9 103.6C177.7 103.1 177.7 105.3 177.7 105.3Z" fill="url(#paint0_linear)"/>
<path d="M187.4 101.3C187.4 101.3 188.3 99.2 190.4 99.5C192.6 99.9 193.4 102.1 193.4 102.1C193.4 102.1 193.3 99.1 190.4 98.8C187.6 98.6 187.4 101.3 187.4 101.3Z" fill="#E28054"/>
<path d="M174.8 102C174.8 102 174.1 99.7 172.7 99.5C171.3 99.3 170.9 101.8 170.9 101.8C170.9 101.8 171.1 98.4 172.9 98.8C174.7 99.3 174.8 102 174.8 102Z" fill="#E28054"/>
<path d="M191.1 130.7C188.5 132 184.2 133.2 177.9 132.7C175.4 132.5 173.4 131.3 172 129.9C170.4 125.6 170.5 118.6 171.6 117.7C172.7 116.7 174.5 117.6 177.4 117.4C177.4 117.4 182.8 116.5 186.5 116.2C190.2 115.9 193.1 118.1 193.8 123C193.9 123.4 193.9 123.8 193.9 124.2C193.9 124.4 193.7 129.4 191.1 130.7Z" fill="#995D3F"/>
<path d="M185.6 135.5C176.9 136.7 174.2 134.8 172.3 130.5C172.2 130.3 172.1 130.1 172.1 129.9C173.5 131.3 175.5 132.5 178 132.7C184.4 133.2 188.6 132 191.2 130.7C193.7 129.4 194 124.4 194 124.2C194.4 128.9 193.6 134.4 185.6 135.5Z" fill="#8C4B2F"/>
<path d="M179.1 119.8C179.1 119.8 176.1 119.8 174.8 119.6C173.5 119.4 172.9 122.3 174.8 123.8C176.7 125.3 183.2 125.3 186.2 123.4C189.2 121.5 188.1 118.7 186.1 118.6C184 118.5 181.6 119.7 179.1 119.8Z" fill="#FDB082"/>
<path d="M177.7 122.6C181.9 123.2 185.5 121.1 185.7 121C185.9 120.9 186 120.5 185.9 120.3C185.8 120.1 185.4 120 185.2 120.1C185.1 120.1 180.1 123 175.4 120.8C175.1 120.7 174.8 120.8 174.7 121.1C174.6 121.4 174.7 121.7 175 121.8C175.8 122.2 176.7 122.5 177.7 122.6Z" fill="#E28054"/>
<path d="M197.8 97.5C197.8 97.5 194.3 95.6 192.1 95.5C190 95.4 185.9 96.5 185.5 96.1C185.1 95.7 185 92.1 185.3 91.6C185.6 91.1 192.6 90.1 194.9 91.9C197.1 93.6 199.3 98.2 197.8 97.5Z" fill="#995D3F"/>
<path d="M170.5 98.9C170.5 98.9 170.9 97.6 171.5 97.4C172.1 97.2 176.2 97.7 176.3 97.1C176.4 96.5 176.8 92.8 176.2 92.5C175.6 92.1 172 92.2 171.3 93.4C170.6 94.6 169.3 98.5 170.5 98.9Z" fill="#995D3F"/>
<path d="M187.6 144.6C187.6 144.6 165.6 144.7 161.7 154.7C157.8 164.7 170.5 247.4 170.5 247.4L231.9 256.8C231.9 256.8 237.8 166.3 234.9 158.7C232 151.1 220.1 146.1 208.8 145.6C197.3 145.1 187.6 144.6 187.6 144.6Z" fill="#F4EDED"/>
<path d="M212.5 145C212.5 145 204.7 153.4 203 176.4C201.4 199.3 202.6 253.6 202.6 253.6L237.9 258.6C237.9 258.6 241 178.7 238.6 163.7C236.2 148.5 225.5 145.6 212.5 145Z" fill="#284B90"/>
<path d="M184.3 144.6C184.3 144.6 169.8 155.3 170.1 182.3C170.4 209.3 170.4 247.4 170.4 247.4L154.3 244.6C154.3 244.6 156.2 185.3 156.9 165.5C157.6 145.7 172.4 144.8 184.3 144.6Z" fill="#284B90"/>
<path d="M202.2 214.3C202.2 214.3 201.1 181.3 202.3 168.1C203.4 154.9 213.3 143.2 212.3 140.4C211.3 137.7 208.4 137.8 208.4 137.8V136C208.4 136 212.9 135.7 216 138.7C219 141.6 221.5 145.9 221.5 145.9C221.5 145.9 219.7 151.8 218.1 159.5C216.5 167.2 216.9 170.5 216 171.1C215.1 171.8 206.7 172.1 207.1 172.5C207.5 172.9 214.9 175.2 213.9 178.4C212.7 181.7 202.2 214.3 202.2 214.3Z" fill="#1E3D70"/>
<path d="M187.3 141.4C187.3 141.4 182.7 145.3 177.9 153.6C173.1 161.9 172 170 171.5 183.1C171 196.3 170.2 209.7 170.2 209.7C170.2 209.7 162.3 180.2 162.6 177.3C162.9 174.4 168.6 170.9 168.6 170.9C168.6 170.9 163.2 168.8 162.5 167.7C161.7 166.7 169 151.1 176.1 145.4C183.2 139.7 187.2 139.6 187.2 139.6L187.3 141.4Z" fill="#1E3D70"/>
<path d="M210.5 145.7C210.5 145.7 204.7 152.1 191.9 151.9C191.1 150.1 190.5 147.5 190.5 147.5L189.1 151.2C189.1 151.2 187 150.9 185.6 148.7C184.2 146.5 185.6 144.7 185.6 144.7C185.6 144.7 188.1 144.4 188.3 144.2C188.5 144 190.7 141.6 190.7 141.6L209.7 145.6L210.5 145.7Z" fill="#E0D5D5"/>
<path d="M208.4 137.3C208.4 137.3 199.8 141 187.3 140.4C187 143.1 186 143.6 185.7 144.7C184.6 148.3 188.9 150.3 188.9 150.3L190.7 141.9L192.1 150.7C192.1 150.7 203.9 150.6 209.7 145.6C209.5 141.1 208.4 137.3 208.4 137.3Z" fill="#F4EDED"/>
<path d="M192.1 150.7C192.1 150.7 189.4 158.5 187.1 157.7C184.8 156.9 187.9 148.6 189 146.2C190 143.8 190.8 142.2 190.8 142.2C190.8 142.2 191.9 147 192.1 150.7Z" fill="#FC4629"/>
<path d="M186.7 155.5C186.7 155.5 180.3 172.1 178.8 189.1C177.3 206.1 175.9 217.3 176.5 217.9C177.1 218.5 181.2 233.1 182.3 232.6C183.4 232.1 188 220.4 188.2 219.4C188.3 218.5 185.5 193.8 185.6 178.6C185.7 163.4 188.3 155.7 188.3 155.7L186.7 155.5Z" fill="#FC4629"/>
<path d="M214.099 290.1L227.899 295.4L222.599 302.4L216.399 301.5L200.699 295.1L214.099 290.1Z" fill="#BCC8C9"/>
<path d="M215 288.1C215 288.1 146.8 250.1 125.1 243.8C103.8 237.6 85.0995 254.1 115.7 268.8C146.3 283.5 206.5 299.7 206.5 299.7C206.5 299.7 213.7 292.3 215 288.1Z" fill="#2B478B"/>
<path d="M208 298.1C208 298.1 219.1 304.3 225.1 306.7C231.1 309.1 239.7 311.3 241.6 311.1C243.5 310.9 247.4 308.5 246.4 303.2C245.4 297.9 214.1 290.1 214.1 290.1C214.1 290.1 221.4 293.6 221 294.1C220.7 294.6 216.5 293 216 293.3C215.5 293.6 212.2 296.5 213.6 297.6C215 298.7 216 300.6 216 300.6L208 298.1Z" fill="#352D2A"/>
<path d="M187.6 104.8C187.6 104.8 187.2 109.5 190.1 109.5C193 109.5 192.8 104.8 192.8 104.8C192.8 104.8 192 108.9 190.1 108.9C188.2 108.9 187.6 104.8 187.6 104.8Z" fill="#332C29"/>
<path d="M171.1 104.8C171.1 104.8 170.8 109.5 173 109.5C175.2 109.5 175 104.8 175 104.8C175 104.8 174.4 108.9 173 108.9C171.6 108.9 171.1 104.8 171.1 104.8Z" fill="#332C29"/>
<path d="M169.7 263.9L140.9 279L132.1 275.7L168.3 262.1L169.7 263.9Z" fill="#03264C"/>
<path d="M199.1 278.8L169.7 288.8L174.1 290.1L200.7 279L199.1 278.8Z" fill="#03264C"/>
<path opacity="0.49" d="M278.7 336.7C278.7 340.5 236.5 343.6 184.4 343.6C132.3 343.6 90.0996 340.5 90.0996 336.7C90.0996 332.9 132.3 329.8 184.4 329.8C236.5 329.9 278.7 332.9 278.7 336.7Z" fill="#D5E1E2"/>
<path d="M224 242.6C224 242.6 240.6 240.5 244.7 251.2C248.8 261.9 248 271.6 228 277.9C233.2 268.9 224 242.6 224 242.6Z" fill="#03264C"/>
<path d="M125.3 290.1L111.5 295.4L116.8 302.4L123.1 301.5L138.7 295.1L125.3 290.1Z" fill="#BCC8C9"/>
<path d="M131.4 298.1C131.4 298.1 120.3 304.3 114.3 306.7C108.3 309.1 99.7002 311.3 97.8002 311.1C95.9002 310.9 92.0002 308.5 93.0002 303.2C94.0002 297.9 125.3 290.1 125.3 290.1C125.3 290.1 118 293.6 118.4 294.1C118.7 294.6 122.9 293 123.4 293.3C123.9 293.6 127.2 296.5 125.8 297.6C124.4 298.7 123.4 300.6 123.4 300.6L131.4 298.1Z" fill="#352D2A"/>
<path d="M124.4 288.1C124.4 288.1 192.6 250.1 214.3 243.8C235.6 237.6 254.3 254.1 223.7 268.8C193.1 283.5 132.9 299.7 132.9 299.7C132.9 299.7 125.7 292.3 124.4 288.1Z" fill="#2B478B"/>
<path d="M354.4 143.7V173.9H350.8C350.8 173.9 350.8 164.5 349.4 161.5C348 158.5 345.5 156.7 345.6 151.3C345.8 145.8 351.2 143.7 354.4 143.7Z" fill="#FFD876"/>
<path d="M354.399 173.8V180C354.399 180 353.299 180 352.499 179.1C351.699 178.1 351.699 177.9 351.499 177.8C351.299 177.7 349.899 177.6 349.799 176.7C349.599 175.8 350.599 175.4 350.599 175.4C350.599 175.4 349.699 175.2 349.599 174.4C349.499 173.6 350.199 173.5 351.199 173.5C352.199 173.5 354.499 173.5 354.499 173.5V173.8H354.399Z" fill="#BABEBF"/>
<path d="M354.4 147.6C354.4 147.6 351.2 148.4 350.8 152.1C350.4 155.8 352.8 158.5 352.9 162C353 165.5 353.4 170.5 354.4 170.5C354.4 166.7 354.4 147.6 354.4 147.6Z" fill="#FFEBC0"/>
<path d="M350.7 145C350.7 145 347.3 146.2 346.3 149.7C345.3 153.2 346.8 156.6 348.5 159C350.2 161.4 350.7 164.1 350.9 167.2C351.2 170.2 351.3 173.2 351.3 173.2H353.5L351.9 172.9C351.9 172.9 351.7 167.4 351 164.1C350.4 160.7 348.6 159 347.1 156.1C345.7 153.3 346 149.8 347.2 147.9C348.5 146.1 350.7 145 350.7 145Z" fill="#FFC239"/>
<path d="M350.499 175.4H354.399V176H349.899C349.899 176 349.899 175.7 350.499 175.4Z" fill="#939C9E"/>
<path d="M351.399 177.8H354.399V178.3H351.899C351.899 178.3 351.499 177.8 351.399 177.8Z" fill="#939C9E"/>
<path d="M354.399 143.7V173.9H357.999C357.999 173.9 357.999 164.5 359.399 161.5C360.799 158.5 363.299 156.7 363.199 151.3C362.999 145.8 357.499 143.7 354.399 143.7Z" fill="#FFD876"/>
<path d="M354.4 173.8V180C354.4 180 355.5 180 356.3 179.1C357.1 178.1 357.1 177.9 357.3 177.8C357.5 177.7 358.9 177.6 359 176.7C359.2 175.8 358.2 175.4 358.2 175.4C358.2 175.4 359.1 175.2 359.2 174.4C359.3 173.6 358.6 173.5 357.6 173.5C356.6 173.5 354.3 173.5 354.3 173.5V173.8H354.4Z" fill="#BABEBF"/>
<path d="M354.399 147.6C354.399 147.6 357.599 148.4 357.999 152.1C358.399 155.8 355.999 158.5 355.899 162C355.799 165.5 355.399 170.5 354.399 170.5C354.399 166.7 354.399 147.6 354.399 147.6Z" fill="#FFEBC0"/>
<path d="M357.999 145C357.999 145 361.399 146.2 362.399 149.7C363.399 153.2 361.899 156.6 360.199 159C358.499 161.4 357.999 164.1 357.799 167.2C357.499 170.2 357.399 173.2 357.399 173.2H355.199L356.799 172.9C356.799 172.9 356.999 167.4 357.699 164.1C358.299 160.7 360.099 159 361.599 156.1C362.999 153.3 362.699 149.8 361.499 147.9C360.199 146.1 357.999 145 357.999 145Z" fill="#FFC239"/>
<path d="M358.2 175.4H354.3V176H358.8C358.9 176 358.8 175.7 358.2 175.4Z" fill="#939C9E"/>
<path d="M357.399 177.8H354.399V178.3H356.899C356.899 178.3 357.199 177.8 357.399 177.8Z" fill="#939C9E"/>
<path d="M364.4 159.9L377.6 168.7L377.1 169.2L364.4 159.9Z" fill="#FFEBC0"/>
<path d="M344.1 158.1L327.1 164.6L326.6 163.5L344.1 158.1Z" fill="#FFEBC0"/>
<path d="M360.6 142.8L370.1 131.9L370.7 132.3L360.6 142.8Z" fill="#FFEBC0"/>
<path d="M347.7 144.3L338.1 134L337.3 134.7L347.7 144.3Z" fill="#FFEBC0"/>
<path d="M343.8 150.4L336.1 150.2V149.2L343.8 150.4Z" fill="#FFEBC0"/>
<path d="M366.9 152.4L375 154.7L375.2 153.7L366.9 152.4Z" fill="#FFEBC0"/>
<path d="M357 142.1C357 141.9 359 134.1 359 134.1L358 133.9L357 142.1Z" fill="#FFEBC0"/>
<path d="M341.8 173.8C341.9 173.6 347.4 165.7 347.4 165.7L340.9 173.1L341.8 173.8Z" fill="#FFEBC0"/>
<path d="M362.8 175.1C362.8 174.9 360.1 167.9 360.1 167.9L363.6 174.7L362.8 175.1Z" fill="#FFEBC0"/>
<path d="M360.6 53L295.1 68.3C294.2 68.5 293.4 68 293.2 67.1L282 19.1C281.8 18.2 282.3 17.4 283.2 17.2L316 9.5L348.8 1.8C349.7 1.6 350.5 2.1 350.7 3L361.9 51C362 51.9 361.5 52.8 360.6 53Z" fill="#E8E3E2"/>
<path d="M293.9 18.9C293.6 17.8 292.5 17.1 291.4 17.4C290.3 17.7 289.6 18.8 289.9 19.9C290.2 21 291.3 21.7 292.4 21.4C293.4 21.1 294.1 20 293.9 18.9Z" fill="white"/>
<path d="M300.2 17.4C299.9 16.3 298.8 15.6 297.7 15.9C296.6 16.2 295.9 17.3 296.2 18.4C296.5 19.5 297.6 20.2 298.7 19.9C299.8 19.6 300.5 18.5 300.2 17.4Z" fill="white"/>
<path d="M292.1 20.3C291.5 20.4 291 20.2 290.9 19.8L290.1 16.2L289.3 12.6C289.2 12.2 289.6 11.7 290.1 11.6C290.7 11.5 291.2 11.7 291.3 12.1L293 19.3C293 19.7 292.7 20.2 292.1 20.3Z" fill="#B48A7E"/>
<path d="M298.5 18.8C297.9 18.9 297.4 18.7 297.3 18.3L296.5 14.7L295.7 11.1C295.6 10.7 296 10.2 296.5 10.1C297.1 10 297.6 10.2 297.7 10.6L299.4 17.8C299.4 18.2 299 18.7 298.5 18.8Z" fill="#B48A7E"/>
<path d="M336.4 8.9C336.1 7.8 335 7.1 333.9 7.4C332.8 7.7 332.1 8.8 332.4 9.9C332.7 11 333.8 11.7 334.9 11.4C336 11.1 336.7 10 336.4 8.9Z" fill="white"/>
<path d="M342.8 7.4C342.5 6.3 341.4 5.6 340.3 5.9C339.2 6.2 338.5 7.3 338.8 8.4C339.1 9.5 340.2 10.2 341.3 9.9C342.4 9.6 343.1 8.5 342.8 7.4Z" fill="white"/>
<path d="M334.7 10.3C334.1 10.4 333.6 10.2 333.5 9.80001L332.7 6.20001L331.9 2.60001C331.8 2.20001 332.2 1.70001 332.7 1.60001C333.3 1.50001 333.8 1.70001 333.9 2.10001L335.6 9.30001C335.6 9.70001 335.2 10.2 334.7 10.3Z" fill="#B48A7E"/>
<path d="M341 8.80001C340.4 8.90001 339.9 8.70001 339.8 8.30001L339 4.70001L338.2 1.10001C338.1 0.700007 338.5 0.200007 339 0.100007C339.6 7.32392e-06 340.1 0.200007 340.2 0.600007L341.9 7.80001C342 8.20001 341.6 8.70001 341 8.80001Z" fill="#B48A7E"/>
<path d="M297 61.4L302.3 37.3L313.5 47.5L316.4 41.8L328.3 49.9L334.2 24.3L341.3 27.5L347.3 11.3L341.8 28.5L334.7 25.3L328.7 51.1L316.7 43L313.8 48.7L302.8 39.1C302.8 39.1 297.8 59.7 297 61.4Z" fill="#FC4629"/>
<path d="M342.899 17.2L345.999 15.6L347.299 18.9L348.099 9.60001L342.899 17.2Z" fill="#FC4629"/>
<path d="M282.9 54.7C282.9 54.7 280.8 37.1 280.6 33.2C280.4 29.3 282.6 22.4 282.6 22.4L290.1 54.3L282.9 54.7Z" fill="#FDB082"/>
<path d="M283.9 39.6C283.9 39.6 286.8 34.3 287.5 32.9C288.3 31.5 291.5 31.9 293.9 31.8C296.3 31.7 296.3 32.7 295.1 33.8C293.9 34.9 290.2 35 290.2 35.5C290.2 35.9 290.9 40.5 290.8 45C290.7 49.5 289.9 54.2 289.9 54.2L283.9 39.6Z" fill="#FDB082"/>
<path d="M57.9 166L17.6999 176.2C16.5999 176.5 15.4999 175.8 15.1999 174.7L0.0999489 115.2C-0.200051 114.1 0.499949 113 1.59995 112.7L20.9999 107.8L41.7999 102.5C42.8999 102.2 44 102.9 44.2999 104L59.4 163.5C59.6 164.6 59 165.7 57.9 166Z" fill="#332C29"/>
<path d="M56.3 164.9L18.5 174.5C17.5 174.8 16.4 174.1 16.1 173.1L1.69995 116.2C1.39995 115.2 2.09995 114.1 3.09995 113.8L21.4 109.2L41 104.2C42 103.9 43.1 104.6 43.4 105.6L57.8 162.4C58 163.5 57.4 164.6 56.3 164.9Z" fill="white"/>
<path d="M26.8002 102.9L21.0002 104.4L20.6002 104.5L14.8002 106C13.0002 106.5 11.9002 108.3 12.4002 110L13.5002 114.2L14.4002 114L13.3002 109.8C13.0002 108.5 13.7002 107.2 15.0002 106.9L20.8002 105.4L21.2002 105.3L27.0002 103.8C28.3002 103.5 29.6002 104.2 29.9002 105.5L31.0002 109.7L31.9002 109.5L30.8002 105.3C30.4002 103.5 28.6002 102.4 26.8002 102.9Z" fill="#FC4629"/>
<path d="M40.4773 111.356L34.6621 112.834L36.1399 118.649L41.9551 117.171L40.4773 111.356Z" fill="#E8E3E2"/>
<path opacity="0.44" d="M18.0002 119.4L7.30023 122.1C7.00023 122.2 6.70023 122 6.60023 121.7C6.50023 121.4 6.70023 121.1 7.00023 121L12.4002 119.6L17.8002 118.2C18.1002 118.1 18.4002 118.3 18.5002 118.6C18.5002 119 18.3002 119.3 18.0002 119.4Z" fill="#8BBBE5"/>
<path opacity="0.44" d="M24.6998 120.4L8.19982 124.6C7.69982 124.7 7.29982 124.6 7.19982 124.2C7.09982 123.9 7.39982 123.5 7.89982 123.4L16.0998 121.3L24.2998 119.2C24.7998 119.1 25.1998 119.2 25.2998 119.6C25.4998 119.9 25.1998 120.2 24.6998 120.4Z" fill="#8BBBE5"/>
<path d="M43.2771 122.142L37.4619 123.62L38.9397 129.435L44.7549 127.957L43.2771 122.142Z" fill="#E8E3E2"/>
<path opacity="0.44" d="M20.8004 130.2L10.0004 132.9C9.70043 133 9.40043 132.8 9.30043 132.5C9.20043 132.2 9.40043 131.9 9.70043 131.8L15.1004 130.4L20.5004 129C20.8004 128.9 21.1004 129.1 21.2004 129.4C21.3004 129.8 21.1004 130.1 20.8004 130.2Z" fill="#8BBBE5"/>
<path opacity="0.44" d="M27.5006 131.2L11.0006 135.4C10.5006 135.5 10.1006 135.4 10.0006 135C9.90061 134.7 10.2006 134.3 10.7006 134.2L18.9006 132.1L27.1006 130C27.6006 129.9 28.0006 130 28.1006 130.4C28.3006 130.7 27.9006 131 27.5006 131.2Z" fill="#8BBBE5"/>
<path d="M45.9793 132.953L40.1641 134.431L41.6419 140.246L47.4571 138.768L45.9793 132.953Z" fill="#E8E3E2"/>
<path opacity="0.44" d="M23.5002 141L12.8002 143.7C12.5002 143.8 12.2002 143.6 12.1002 143.3C12.0002 143 12.2002 142.7 12.5002 142.6L17.9002 141.2L23.3002 139.8C23.6002 139.7 23.9002 139.9 24.0002 140.2C24.0002 140.6 23.8002 140.9 23.5002 141Z" fill="#8BBBE5"/>
<path opacity="0.44" d="M30.1998 142L13.6998 146.2C13.1998 146.3 12.7998 146.2 12.6998 145.8C12.5998 145.5 12.8998 145.1 13.3998 145L21.5998 142.9L29.7998 140.8C30.2998 140.7 30.6998 140.8 30.7998 141.2C30.9998 141.5 30.6998 141.8 30.1998 142Z" fill="#8BBBE5"/>
<path d="M48.7791 143.739L42.9639 145.216L44.4417 151.032L50.2569 149.554L48.7791 143.739Z" fill="#E8E3E2"/>
<path opacity="0.44" d="M26.3 151.8L15.6 154.5C15.3 154.6 15 154.4 14.9 154.1C14.8 153.8 15 153.5 15.3 153.4L20.7 152L26.1 150.6C26.4 150.5 26.7 150.7 26.8 151C26.8 151.4 26.6 151.7 26.3 151.8Z" fill="#8BBBE5"/>
<path opacity="0.44" d="M32.9 152.8L16.4 157C15.9 157.1 15.5 157 15.4 156.6C15.3 156.3 15.6 155.9 16.1 155.8L24.3 153.7L32.5 151.6C33 151.5 33.4 151.6 33.5 152C33.8 152.3 33.4 152.6 32.9 152.8Z" fill="#8BBBE5"/>
<path d="M51.4822 154.549L45.667 156.027L47.1448 161.842L52.96 160.364L51.4822 154.549Z" fill="#E8E3E2"/>
<path opacity="0.44" d="M29.0002 162.6L18.3002 165.3C18.0002 165.4 17.7002 165.2 17.6002 164.9C17.5002 164.6 17.7002 164.3 18.0002 164.2L23.4002 162.8L28.8002 161.4C29.1002 161.3 29.4002 161.5 29.5002 161.8C29.5002 162.2 29.3002 162.5 29.0002 162.6Z" fill="#8BBBE5"/>
<path opacity="0.44" d="M35.6998 163.6L19.1998 167.8C18.6998 167.9 18.2998 167.8 18.1998 167.4C18.0998 167.1 18.3998 166.7 18.8998 166.6L27.0998 164.5L35.2998 162.4C35.7998 162.3 36.1998 162.4 36.2998 162.8C36.4998 163.1 36.1998 163.4 35.6998 163.6Z" fill="#8BBBE5"/>
<path d="M35.2998 115.1L38.8998 117.2L41.2998 110.4L38.2998 115.6L35.2998 115.1Z" fill="#FC4629"/>
<path d="M38 125.8L41.6 128L44.1 121.2L41.1 126.4L38 125.8Z" fill="#FC4629"/>
<path d="M40.7002 136.6L44.4002 138.8L46.8002 132L43.8002 137.2L40.7002 136.6Z" fill="#FC4629"/>
<path d="M58.5 139.3C58.5 139.3 53.6 122.2 52 119.1C50.4 116.1 45.5 109 45.5 109L55 146.1L58.5 139.3Z" fill="#FDB082"/>
<path d="M51.1998 126.9C51.1998 126.9 48.1998 123.4 47.0998 122.3C45.8998 121.2 44.4998 118.9 44.3998 119.1C44.2998 119.3 43.4998 122.2 44.8998 124.3C46.3998 126.5 47.8998 129 48.6998 131.7C49.4998 134.4 51.1998 137.9 53.8998 139.3C56.4998 140.7 52.7998 128.4 51.1998 126.9Z" fill="#FDB082"/>
<path d="M338.4 247.4C338.4 247.4 329.5 262 325.8 282C322.1 302 326.1 328.5 321.4 334.5C316.7 340.5 297.4 335.1 286.2 337.6C275 340.1 268.2 349 261.2 351.5C254.2 354 239.8 349.7 228 350C216.2 350.2 200.8 363.5 200.8 363.5L230 377C230 377 236.8 369.6 246.1 366.6C255.4 363.6 267.1 369.2 277.6 367.6C288.1 366 293.5 354.7 306.5 353C319.5 351.3 335.3 356.8 346.5 349.1C357.7 341.4 355.3 316.6 356.4 294.3C357.5 272 368.9 249.9 368.9 249.9L338.4 247.4Z" fill="#E8E3E2"/>
<path opacity="0.6" d="M278.7 340.8L301.8 354C301.8 354 308.1 351.1 326.6 353.2C318 348.6 304.5 337.6 304.5 337.6C304.5 337.6 286.1 335.8 278.7 340.8Z" fill="#F2F0F0"/>
<path opacity="0.6" d="M220.7 352.3L243.2 366.7C243.2 366.7 246 364.6 252.3 364.8C258.5 365 263.6 366.2 263.6 366.2L240.7 351.4C240.7 351.5 226.2 348.7 220.7 352.3Z" fill="#F2F0F0"/>
<path d="M323.1 259.8C323.1 259.8 331 253.8 333.4 253.7C335.7 253.6 337.9 256.1 339.2 256.8C340.5 257.5 341.3 258.1 340.2 258.6C339.1 259.1 337.6 259.1 336.3 258.7C335 258.3 334.6 257.9 334.5 257.9C334.4 257.9 332.9 258.8 332.9 258.8C332.9 258.8 329.5 268.2 328.2 272.1C323.5 270.7 319.9 268.8 319.9 268.8L323.1 259.8Z" fill="#FDB082"/>
<path opacity="0.44" d="M359.7 253.4L342.8 251.7C342.3 251.6 341.9 251.3 342 251C342 250.7 342.5 250.5 343 250.5L351.5 251.4L360 252.3C360.5 252.4 360.9 252.7 360.8 253C360.6 253.2 360.2 253.4 359.7 253.4Z" fill="#8BBBE5"/>
<path opacity="0.44" d="M357.3 257.7L340.4 256C339.9 255.9 339.5 255.6 339.6 255.3C339.6 255 340.1 254.8 340.6 254.8L349.1 255.7L357.6 256.6C358.1 256.7 358.5 257 358.4 257.3C358.2 257.5 357.8 257.8 357.3 257.7Z" fill="#8BBBE5"/>
<path opacity="0.44" d="M350.3 280.5L333.4 278.8C332.9 278.7 332.5 278.4 332.6 278.1C332.6 277.8 333.1 277.6 333.6 277.6L342.1 278.5L350.6 279.4C351.1 279.5 351.5 279.8 351.4 280.1C351.2 280.4 350.8 280.6 350.3 280.5Z" fill="#8BBBE5"/>
<path opacity="0.44" d="M349 285.2L332.1 283.5C331.6 283.4 331.2 283.1 331.3 282.8C331.3 282.5 331.8 282.3 332.3 282.3L340.8 283.2L349.3 284.1C349.8 284.2 350.2 284.5 350.1 284.8C350 285 349.5 285.3 349 285.2Z" fill="#8BBBE5"/>
<path opacity="0.44" d="M348.4 289.9L331.5 288.2C331 288.1 330.6 287.8 330.7 287.5C330.7 287.2 331.2 287 331.7 287L340.2 287.9L348.7 288.8C349.2 288.9 349.6 289.2 349.5 289.5C349.4 289.7 348.9 290 348.4 289.9Z" fill="#8BBBE5"/>
<path opacity="0.44" d="M346.9 320.9L330 319.2C329.5 319.1 329.1 318.8 329.2 318.5C329.2 318.2 329.7 318 330.2 318L338.7 318.9L347.2 319.8C347.7 319.9 348.1 320.2 348 320.5C347.9 320.7 347.4 321 346.9 320.9Z" fill="#8BBBE5"/>
<path opacity="0.44" d="M346.9 326.2L330 324.5C329.5 324.4 329.1 324.1 329.2 323.8C329.2 323.5 329.7 323.3 330.2 323.3L338.7 324.2L347.2 325.1C347.7 325.2 348.1 325.5 348 325.8C347.9 326 347.4 326.2 346.9 326.2Z" fill="#8BBBE5"/>
<path opacity="0.44" d="M292.5 353.6L277.4 345.8C277 345.6 276.7 345.1 276.9 344.9C277 344.6 277.5 344.6 278 344.8L285.6 348.7L293.2 352.6C293.6 352.8 293.9 353.3 293.7 353.5C293.4 353.7 292.9 353.8 292.5 353.6Z" fill="#8BBBE5"/>
<path opacity="0.44" d="M287.5 357.2L272.4 349.4C272 349.2 271.7 348.7 271.9 348.5C272 348.2 272.5 348.2 273 348.4L280.6 352.3L288.2 356.2C288.6 356.4 288.9 356.9 288.7 357.1C288.4 357.4 287.9 357.4 287.5 357.2Z" fill="#8BBBE5"/>
<path opacity="0.44" d="M282.4 360.9L267.3 353.1C266.9 352.9 266.6 352.4 266.8 352.2C266.9 351.9 267.4 351.9 267.9 352.1L275.5 356L283.1 359.9C283.5 360.1 283.8 360.6 283.6 360.8C283.3 361.1 282.8 361.1 282.4 360.9Z" fill="#8BBBE5"/>
<path opacity="0.44" d="M228.2 369.1L212.6 362.2C212.1 362 211.9 361.6 212 361.3C212.1 361 212.6 360.9 213.1 361.1L220.9 364.5L228.7 367.9C229.2 368.1 229.4 368.5 229.3 368.8C229.2 369.3 228.7 369.3 228.2 369.1Z" fill="#8BBBE5"/>
<path opacity="0.44" d="M235.2 364.1L219.6 357.2C219.1 357 218.9 356.6 219 356.3C219.1 356 219.6 355.9 220.1 356.1L227.9 359.5L235.7 362.9C236.2 363.1 236.4 363.5 236.3 363.8C236.1 364.2 235.7 364.3 235.2 364.1Z" fill="#8BBBE5"/>
<g opacity="0.44">
<path opacity="0.44" d="M348.7 272L340.9 271C340.3 270.9 339.8 270.3 339.9 269.7L340.9 261.9C341 261.3 341.6 260.8 342.2 260.9L350 261.9C350.6 262 351.1 262.6 351 263.2L350 271C349.9 271.7 349.3 272.1 348.7 272ZM342.1 262C342 262 341.9 262 341.9 262.1L340.9 269.9C340.9 270 340.9 270.1 341 270.1L348.8 271.1C348.9 271.1 349 271.1 349 271L350 263.2C350 263.1 350 263 349.9 263L342.1 262Z" fill="#8BBBE5"/>
</g>
<g opacity="0.44">
<path opacity="0.44" d="M342.3 309.1L334.5 308.9C333.9 308.9 333.4 308.4 333.4 307.7L333.6 299.9C333.6 299.3 334.1 298.8 334.8 298.8L342.6 299C343.2 299 343.7 299.5 343.7 300.2L343.5 308C343.5 308.6 342.9 309.1 342.3 309.1ZM334.7 299.8C334.6 299.8 334.6 299.9 334.5 299.9L334.3 307.7C334.3 307.8 334.4 307.8 334.4 307.9L342.2 308.1C342.3 308.1 342.3 308 342.4 308L342.6 300.2C342.6 300.1 342.5 300.1 342.5 300L334.7 299.8Z" fill="#8BBBE5"/>
</g>
<path d="M334.4 302.4L338.7 307L345.1 298.2L338.6 304.5L334.4 302.4Z" fill="#FC4629"/>
<path d="M238.9 81.5L246.1 69.2L246.7 69.6L238.9 81.5Z" fill="#FC4629"/>
<path d="M245.3 89.7L258.6 90.9L258.4 91.8L245.3 89.7Z" fill="#FC4629"/>
<path d="M248.6 81L258.6 77.2L258.9 77.9L248.6 81Z" fill="#FC4629"/>
<path d="M36.5996 285.3C52.6159 285.3 65.5996 272.316 65.5996 256.3C65.5996 240.284 52.6159 227.3 36.5996 227.3C20.5833 227.3 7.59961 240.284 7.59961 256.3C7.59961 272.316 20.5833 285.3 36.5996 285.3Z" fill="#8BBBE5"/>
<path d="M36.7972 280.609C50.2177 280.5 61.0095 269.533 60.9013 256.113C60.7932 242.692 49.826 231.9 36.4055 232.009C22.9849 232.117 12.1932 243.084 12.3013 256.504C12.4095 269.925 23.3767 280.717 36.7972 280.609Z" fill="#292D2C"/>
<path d="M36.6 279.4C49.3578 279.4 59.7 269.058 59.7 256.3C59.7 243.542 49.3578 233.2 36.6 233.2C23.8422 233.2 13.5 243.542 13.5 256.3C13.5 269.058 23.8422 279.4 36.6 279.4Z" fill="white"/>
<path d="M29.7998 239.1L29.9998 243.1L36.1998 257.8L37.4998 257.3L38.7998 256.7L32.5998 242L29.7998 239.1Z" fill="#292D2C"/>
<path d="M44.8996 239.9L44.7996 244L38.7996 258.8L37.3996 258.2L36.0996 257.7L42.0996 242.9L44.8996 239.9Z" fill="#FC4629"/>
<path d="M40.2999 254.5C39.5999 252.8 37.5999 252 35.8999 252.7C34.1999 253.4 33.3999 255.4 34.0999 257.1C34.7999 258.8 36.7999 259.6 38.4999 258.9C40.2999 258.1 41.0999 256.2 40.2999 254.5Z" fill="#292D2C"/>
<path d="M39.1997 254.9C38.6997 253.8 37.4997 253.3 36.3997 253.8C35.2997 254.3 34.7997 255.5 35.2997 256.6C35.7997 257.7 36.9997 258.2 38.0997 257.7C39.1997 257.3 39.6997 256 39.1997 254.9Z" fill="white"/>
<path d="M41.6998 227.3C41.6998 227.3 37.2998 227.9 36.5998 228.4C35.8998 228.9 29.1998 232.3 29.9998 232.6C33.6998 233.8 37.2998 231.2 38.4998 230.7C39.6998 230.2 43.6998 233.7 48.6998 234.1C53.7998 234.5 55.9998 233.4 55.9998 233.4C55.9998 233.4 49.8998 226.7 41.6998 227.3Z" fill="#FDB082"/>
<path d="M239.5 201.4L226.3 184.2L230.8 242.5C230.8 242.5 236 243 238.5 244.6C238.7 237 239.5 201.4 239.5 201.4Z" fill="#1E3D70"/>
<path d="M253.8 173.6C253.8 173.6 230.7 172.9 223.3 170.5C240.9 176.4 270.7 198.1 270.7 198.1C270.7 198.1 259.6 181.1 253.8 173.6Z" fill="#1E3D70"/>
<path d="M155.9 197.7L156.9 168.4C156.9 168.4 147 203.5 135.4 219C145.4 208.6 155.9 197.7 155.9 197.7Z" fill="#1E3D70"/>
<path d="M151.2 163.4C151.2 163.4 160.3 149.2 171.1 144C159.9 146.5 138.7 153.7 138.7 153.7L139.8 159.4L151.2 163.4Z" fill="#1E3D70"/>
</g>
<defs>
<linearGradient id="paint0_linear" x1="178.604" y1="102.225" x2="174.971" y2="122.164" gradientUnits="userSpaceOnUse">
<stop stop-color="#FDB082"/>
<stop offset="1" stop-color="#FD714E"/>
</linearGradient>
<clipPath id="clip0">
<rect width="377.6" height="377" fill="white"/>
</clipPath>
</defs>
</svg>
