<svg width="247" height="112" viewBox="0 0 247 112" fill="none" xmlns="http://www.w3.org/2000/svg">
<path fill-rule="evenodd" clip-rule="evenodd" d="M90.2815 110C103.86 110 114.565 99.808 114.565 85.5C114.565 85.0427 114.565 84.5853 114.5 84.128V83.8667C114.435 82.6253 113.456 81.7107 112.215 81.7107H90.6732C89.4329 81.7107 88.3884 82.756 88.3884 83.9973V88.5707C88.3884 89.812 89.4329 90.8573 90.6732 90.8573H104.317C102.358 97.064 97.0706 100.657 90.2815 100.657C81.3382 100.657 75.4631 94.3853 75.4631 85.5C75.4631 76.68 81.3382 70.3427 90.2815 70.3427C95.8303 70.3427 99.9429 72.4987 102.815 76.8107C103.207 77.464 103.925 77.856 104.708 77.856H110.192C111.497 77.856 112.477 76.876 112.477 75.6347C112.477 73.6093 109.604 70.016 107.842 68.1867C103.272 63.4173 97.3317 61 90.2815 61C76.377 61 65.9976 71.6493 65.9976 85.5C65.9976 99.416 76.377 110 90.2815 110ZM9.46552 107.321C9.46552 108.563 8.42105 109.608 7.18074 109.608H2.28478C1.04447 109.608 0 108.563 0 107.321V63.94C0 62.6987 1.04447 61.6533 2.28478 61.6533H7.18074C8.42105 61.6533 9.46552 62.6987 9.46552 63.94V80.9267H30.1591V63.94C30.1591 62.6987 31.1383 61.6533 32.3786 61.6533H37.3399C38.5802 61.6533 39.5594 62.6987 39.5594 63.94V107.321C39.5594 108.563 38.5802 109.608 37.3399 109.608H32.3786C31.1383 109.608 30.1591 108.563 30.1591 107.321V90.2693H9.46552V107.321ZM59.4696 107.321C59.4696 108.563 58.4251 109.608 57.1848 109.608H52.2889C51.0486 109.608 50.0041 108.563 50.0041 107.321V63.94C50.0041 62.6987 51.0486 61.6533 52.2889 61.6533H57.1848C58.4251 61.6533 59.4696 62.6987 59.4696 63.94V107.321ZM129.906 107.321C129.906 108.563 128.862 109.608 127.621 109.608H122.725C121.485 109.608 120.441 108.563 120.441 107.321V63.94C120.441 62.6987 121.485 61.6533 122.725 61.6533H127.621C128.862 61.6533 129.906 62.6987 129.906 63.94V80.9267H150.6V63.94C150.6 62.6987 151.579 61.6533 152.819 61.6533H157.781C159.021 61.6533 160 62.6987 160 63.94V107.321C160 108.563 159.021 109.608 157.781 109.608H152.819C151.579 109.608 150.6 108.563 150.6 107.321V90.2693H129.906V107.321Z" fill="white"/>
<path fill-rule="evenodd" clip-rule="evenodd" d="M216.867 36.115C216.83 36.4955 216.809 36.7216 215.9 36.0608C214 34.4608 208.1 27.7608 214.6 14.4608C215.9 10.8608 222.2 0.260825 222.9 0.060825C223.5 -0.139175 224.5 0.160825 225.8 0.860825C227.1 1.56082 228.3 2.46082 229.4 3.56083C229.558 3.7193 229.711 3.86532 229.854 4.00308L229.854 4.0031L229.854 4.00312C230.708 4.82152 231.257 5.34813 231 6.46082C230.883 7.22019 229.743 8.86668 228.416 10.7824L228.416 10.7825L228.416 10.7826C227.471 12.1465 226.432 13.6469 225.6 15.0608C223.5 18.4608 221.8 21.7608 220.3 25.0608C217.926 29.9782 217.349 33.3142 217.046 35.0688C216.991 35.3838 216.946 35.6478 216.9 35.8608C216.883 35.9478 216.874 36.0347 216.867 36.1148L216.867 36.1149L216.867 36.115ZM201.5 39.0608C201.6 39.6608 201.1 39.7608 200.2 39.2608C199.3 38.8608 198.4 37.8608 197.5 36.2608C196.6 34.6608 196.2 32.5608 196.2 29.8608C196.2 27.9608 196.9 25.1608 198.2 21.6608C199.5 18.0608 201 14.8608 202.6 11.8608C204.3 8.86082 205.4 7.26083 206.1 7.06082C206.7 6.86083 207.7 7.16082 209 7.86083C210.3 8.56083 211.5 9.46082 212.6 10.5608C213.7 11.6608 214.2 12.5608 214.2 13.4608C214.2 13.7608 214.1 14.0608 213.9 14.3608C212.5 15.9608 210.8 18.5608 208.8 21.9608C206.7 25.3608 205 28.6608 203.5 31.9608C202 35.2608 201.4 37.5608 201.5 39.0608ZM230.3 46.4608C230.9 45.3608 231.2 43.9608 231.2 42.4608C231.2 41.2608 231 40.4608 230.7 39.9608C230.6 39.7608 230.5 39.6608 230.3 39.5608C230.239 39.5306 230.17 39.4911 230.094 39.4481L230.094 39.448C229.918 39.3489 229.709 39.2305 229.5 39.1608C229.7 38.6608 229.9 38.1608 230.2 37.6608C231.7 34.3608 233.4 31.0608 235.5 27.6608C237.5 24.2608 239.2 21.6608 240.6 20.0608C240.8 19.7608 240.9 19.4608 240.9 19.1608C240.9 18.2608 240.4 17.3608 239.3 16.2608C238.2 15.1608 237 14.2608 235.7 13.5608C234.7 13.0608 233.9 12.7608 233.3 12.7608C233.1 12.7608 232.9 12.7608 232.8 12.8608C232.1 13.0608 231 14.6608 229.3 17.6608C227.7 20.6608 226.2 23.8608 224.9 27.4608C224.85 27.6608 224.775 27.8358 224.7 28.0108C224.625 28.1858 224.55 28.3608 224.5 28.5608C224.5 28.6108 224.475 28.6608 224.45 28.7108C224.425 28.7608 224.4 28.8108 224.4 28.8608C224.3 29.2108 224.2 29.5358 224.1 29.8608C224 30.1858 223.9 30.5108 223.8 30.8608C223.8 30.9108 223.775 30.9608 223.75 31.0108C223.725 31.0608 223.7 31.1108 223.7 31.1608L223.7 31.1609C223.6 31.4609 223.5 31.7608 223.5 32.0608C223.5 32.1608 223.475 32.2608 223.45 32.3608L223.45 32.3608L223.45 32.3609C223.425 32.4609 223.4 32.5608 223.4 32.6608L223.4 32.6609C223.3 33.0609 223.2 33.4608 223.2 33.8608C223.2 33.9608 223.175 34.0608 223.15 34.1608C223.125 34.2608 223.1 34.3608 223.1 34.4608C223.1 34.5608 223.075 34.6358 223.05 34.7108L223.05 34.7108L223.05 34.7109C223.025 34.7859 223 34.8608 223 34.9608V35.0608V35.7608C223 36.7608 223.1 37.7608 223.2 38.6608H221.8C219 38.8608 215.8 39.2608 212.3 40.0608C207.9 41.0608 203.7 42.2608 199.8 43.7608C195.9 45.2608 193 46.7608 191.1 48.2608C188.7 50.0608 187.5 52.1608 187.5 54.3608C187.5 55.0608 187.6 55.5608 187.8 56.0608C188 56.5608 188.2 56.7608 188.5 56.8608C188.8 56.8608 188.9 56.6608 189 56.2608C189.2 55.3608 190.4 54.2608 192.5 53.0608C189.7 57.2608 186.8 62.1608 183.7 67.7608C182.9 69.1608 182.2 70.4608 181.7 71.5608C182 68.7608 182.4 65.7608 183 62.7608C183.8 58.0608 184.7 54.5608 185.5 52.0608C185.6 51.5608 185.6 51.2608 185.5 50.9608C185.1 49.9608 184.2 49.0608 182.5 48.3608C180.9 47.5608 179.2 47.0608 177.5 46.7608C175.8 46.4608 174.6 46.5608 174 47.0608C173.3 47.5608 172.7 49.8608 172.1 53.8608C171.5 57.8608 171.2 62.1608 171.2 66.6608C171.2 71.1608 171.6 74.4608 172.4 76.6608C173.5 79.6608 174.8 81.9608 176.4 83.3608C179.3 85.8608 181.3 85.9608 183.2 84.6608C183.2 84.6608 190.3 79.6608 194.7 77.5608C199.2 75.3608 203.1 74.2608 206.5 74.2608C208 74.2608 209.4 74.5608 210.6 75.1608C208.1 78.9608 204.4 82.8608 199.4 86.7608C194.4 90.6608 189.4 93.8608 184.3 96.4608C179.2 98.9608 175.3 100.261 172.5 100.261C172 100.261 171.5 100.161 171 100.061C170.3 99.8608 170 100.161 170 100.861C170 101.761 170.5 103.161 171.4 104.861C172.3 106.561 173.5 108.061 174.9 109.361C176.3 110.661 177.7 111.361 179 111.361C181.6 111.361 185.5 109.861 190.6 106.861C195.7 103.861 200.6 100.161 205.2 95.7608C209.8 91.3608 212.9 87.0608 214.5 83.0608C215.3 81.1608 215.7 79.0608 215.7 76.7608C215.7 74.8608 215.4 72.9608 214.9 71.2608C214.4 69.5608 213.9 68.5608 213.5 68.3608C213 67.5608 212.5 67.0608 211.8 66.7608C210.3 66.1608 208.6 65.8608 206.8 65.8608C203.8 65.8608 200.6 66.5608 197.1 67.8608C193.6 69.1608 190.3 70.7608 187.1 72.7608C189.2 68.5608 191.4 64.6608 193.6 61.0608C195.9 57.3608 197.8 54.7608 199.5 53.0608C199.7 52.8608 199.8 52.5608 199.8 52.2608C199.8 51.5608 199.4 50.9608 198.7 50.4608C202.2 49.2608 206 48.2608 210 47.4608C214.1 46.6608 217.7 46.2608 220.8 46.2608C224.3 46.2608 226.7 46.7608 228.2 47.6608C229.1 47.9608 229.8 47.6608 230.3 46.4608ZM241.2 32.6608C242.5 33.2608 243.6 34.0608 244.6 35.0608C245.6 35.9608 246.1 36.8608 246.1 37.7608C246.1 37.9608 246 38.2608 245.8 38.5608C244.5 40.0608 242.9 42.3608 241 45.4608C239 48.5608 237.4 51.5608 236 54.4608C234.6 57.3608 234 59.5608 234.1 60.8608C234.2 61.4608 233.8 61.4608 232.9 61.0608C232 60.5608 231.2 59.6608 230.4 58.2608C229.6 56.7608 229.2 54.8608 229.2 52.4608C229.2 50.6608 229.7 48.2608 231 45.0608C232.3 41.8608 233.7 38.9608 235.2 36.2608C236.8 33.5608 237.9 32.1608 238.5 31.9608C239.1 31.7608 239.9 32.0608 241.2 32.6608Z" fill="#FF5F57"/>
</svg>
