<?xml version="1.0" encoding="UTF-8"?>
<svg width="512px" height="512px" viewBox="0 0 512 512" version="1.1" xmlns="http://www.w3.org/2000/svg" xmlns:xlink="http://www.w3.org/1999/xlink">
    <!-- Generator: Sketch 64 (93537) - https://sketch.com -->
    <title>key-skeleton-duotone</title>
    <desc>Created with Sketch.</desc>
    <g id="Page-1" stroke="none" stroke-width="1" fill="none" fill-rule="evenodd">
        <g id="key-skeleton-duotone" fill="#FF5F57" fill-rule="nonzero">
            <path d="M251.31,372.91 C254.311372,375.910687 255.997583,379.980903 255.997583,384.225 C255.997583,388.469097 254.311372,392.539313 251.31,395.54 L235.54,411.31 C229.292461,417.553446 219.167539,417.553446 212.92,411.31 L176,374.4 L145.13,405.26 L181.24,441.37 C184.241372,444.370687 185.927583,448.440903 185.927583,452.685 C185.927583,456.929097 184.241372,460.999313 181.24,464 L138.08,507.17 C131.832461,513.413446 121.707539,513.413446 115.46,507.17 L79.34,471.06 L43.08,507.31 C36.8324607,513.553446 26.7075393,513.553446 20.46,507.31 L4.69,491.54 C1.6886278,488.539313 0.00241685052,484.469097 0.00241685052,480.225 C0.00241685052,475.980903 1.6886278,471.910687 4.69,468.91 L259.81,213.79 C266.29726,231.64154 280.35846,245.70274 298.21,252.19 L214.4,336 L251.31,372.91 L251.31,372.91 Z" id="Path" opacity="0.4"></path>
            <path d="M448,0 L320,0 C284.653776,0 256,28.653776 256,64 L256,192 C256,227.346224 284.653776,256 320,256 L448,256 C483.346224,256 512,227.346224 512,192 L512,64 C512,28.653776 483.346224,0 448,0 Z M374.63,182.63 C365.478602,191.783353 351.714295,194.52239 339.755875,189.569799 C327.797456,184.617208 320.000166,172.948414 320.000166,160.005 C320.000166,147.061586 327.797456,135.392792 339.755875,130.440201 C351.714295,125.48761 365.478602,128.226647 374.63,137.38 C387.123555,149.876224 387.123555,170.133776 374.63,182.63 Z M438.63,118.63 C429.478602,127.783353 415.714295,130.52239 403.755875,125.569799 C391.797456,120.617208 384.000166,108.948414 384.000166,96.005 C384.000166,83.0615861 391.797456,71.3927924 403.755875,66.440201 C415.714295,61.4876096 429.478602,64.2266467 438.63,73.38 C451.123555,85.8762242 451.123555,106.133776 438.63,118.63 Z" id="Shape"></path>
        </g>
    </g>
</svg>