<?xml version="1.0" encoding="UTF-8"?>
<svg width="512px" height="512px" viewBox="0 0 512 512" version="1.1" xmlns="http://www.w3.org/2000/svg" xmlns:xlink="http://www.w3.org/1999/xlink">
    <!-- Generator: Sketch 64 (93537) - https://sketch.com -->
    <title>key-duotone</title>
    <desc>Created with Sketch.</desc>
    <g id="Page-1" stroke="none" stroke-width="1" fill="none" fill-rule="evenodd">
        <g id="key-duotone" fill="#FF5F57" fill-rule="nonzero">
            <path d="M303.06,348.91 L303.16,349 L279.16,376 C274.595055,381.103795 268.067425,384.014667 261.22,384 L224,384 L224,424 C224,437.254834 213.254834,448 200,448 L160,448 L160,488 C160,501.254834 149.254834,512 136,512 L24,512 C10.745166,512 -7.22637666e-05,501.254834 -7.22637666e-05,488 L-7.22637666e-05,410 C-0.015623542,403.628832 2.50269948,397.512905 7,393 L168.83,231.17 L168.72,230.82 C188.714211,291.670463 240.148187,336.882896 303.06,348.91 L303.06,348.91 Z" id="Path" opacity="0.4"></path>
            <path d="M336,0 C238.797884,0 160,78.797884 160,176 C160,273.202116 238.797884,352 336,352 C433.202116,352 512,273.202116 512,176 C512,129.321898 493.457196,84.5556091 460.450793,51.5492065 C427.444391,18.5428039 382.678102,0 336,0 Z M384,176 C357.490332,176 336,154.509668 336,128 C336,101.490332 357.490332,80 384,80 C410.509668,80 432,101.490332 432,128 C432,154.509668 410.509668,176 384,176 L384,176 Z" id="Shape"></path>
        </g>
    </g>
</svg>