<?xml version="1.0" encoding="UTF-8"?>
<svg width="640px" height="512px" viewBox="0 0 640 512" version="1.1" xmlns="http://www.w3.org/2000/svg" xmlns:xlink="http://www.w3.org/1999/xlink">
    <!-- Generator: Sketch 64 (93537) - https://sketch.com -->
    <title>user-plus-duotone</title>
    <desc>Created with Sketch.</desc>
    <g id="Page-1" stroke="none" stroke-width="1" fill="none" fill-rule="evenodd">
        <g id="user-plus-duotone" fill="#FF5F57" fill-rule="nonzero">
            <path d="M640,224 L640,256 C640,264.836556 632.836556,272 624,272 L560,272 L560,336 C560,344.836556 552.836556,352 544,352 L512,352 C503.163444,352 496,344.836556 496,336 L496,272 L432,272 C423.163444,272 416,264.836556 416,256 L416,224 C416,215.163444 423.163444,208 432,208 L496,208 L496,144 C496,135.163444 503.163444,128 512,128 L544,128 C552.836556,128 560,135.163444 560,144 L560,208 L624,208 C632.836556,208 640,215.163444 640,224 Z" id="Path" opacity="0.4"></path>
            <path d="M224,256 C294.692448,256 352,198.692448 352,128 C352,57.307552 294.692448,0 224,0 C153.307552,0 96,57.307552 96,128 C96,198.692448 153.307552,256 224,256 Z M313.6,288 L296.9,288 C250.640968,309.332701 197.359032,309.332701 151.1,288 L134.4,288 C60.1797907,288.016561 0.0165614665,348.179791 2.84217094e-14,422.4 L2.84217094e-14,464 C2.84217094e-14,490.509668 21.490332,512 48,512 L400,512 C426.509668,512 448,490.509668 448,464 L448,422.4 C447.983439,348.179791 387.820209,288.016561 313.6,288 L313.6,288 Z" id="Shape"></path>
        </g>
    </g>
</svg>